# xmcd
#
# Track frame offsets:
#	150
#	14956
#	28178
#	45725
#	62786
#	77686
#	93549
#	109020
#	123460
#	137503
#	154353
#	178285
#
# Disc length: 2571 seconds
#
# Revision: 0
# Processed by: cddbd v1.5.2PL0 Copyright (c) Steve Scherf et al.
# Submitted via: dBpowerAMP V4.0
#
DISCID=ab0a090c
DTITLE=Stephanie Pauline and Joe Uveges - When the Smoke Clears
DYEAR=2011
DGENRE=Country
TTITLE0=Build a Barn
TTITLE1=I Don't Dance
TTITLE2=Unbroken
TTITLE3=Me and Johnny
TTITLE4=Good Kind of Small
TTITLE5=Start With I Love You
TTITLE6=Thank God For Country Radio
TTITLE7=Don't
TTITLE8=Real Men
TTITLE9=A Little More
TTITLE10=When the Smoke Clears
TTITLE11=On the Joy In Singing
EXTD=
EXTT0=
EXTT1=
EXTT2=
EXTT3=
EXTT4=
EXTT5=
EXTT6=
EXTT7=
EXTT8=
EXTT9=
EXTT10=
EXTT11=
PLAYORDER=
